<?xml version="1.0" encoding="UTF-8"?>
<svg width="1200pt" height="1200pt" version="1.1" viewBox="0 0 1200 1200" xmlns="http://www.w3.org/2000/svg">
 <path d="m972.71 937.08c-1.9219-7.3125-6.7031-13.453-13.219-17.297l-52.078-30c-6.6094-3.8438-14.297-4.7812-21.609-2.8594s-13.453 6.7031-17.297 13.219l-7.4531 12.844-92.062-50.062c-38.531-21-79.219-24.844-120.84-11.297l-137.86 44.391c-13.219 4.3125-24.234 13.219-31.453 24.703l-102.23-55.688c-13.547-7.4531-29.297-9-44.156-4.6875-14.859 4.4531-27.234 14.297-34.547 27.844-7.4531 13.547-9 29.297-4.6875 44.156 4.4531 14.859 14.297 27.234 27.938 34.547l233.16 126.84c17.531 9.6094 36.234 14.391 55.219 14.391 12 0 24.141-1.9219 36.234-5.7656l50.391-16.219c21.469-6.8438 42.469-5.0625 62.297 5.3906l-6.7031 11.766c-3.8438 6.6094-4.7812 14.297-2.7656 21.609 2.0625 7.3125 6.7031 13.453 13.312 17.297l52.078 30c4.1719 2.5781 8.9531 3.7969 13.781 3.7969 9.8438 0 19.453-5.1562 24.703-14.156l117-203.16c3.8438-6.6094 4.7812-14.297 2.8594-21.609zm-287.76 114.84-50.391 16.219c-21.844 6.9375-43.078 5.0625-63.234-6l-233.02-126.74c-5.1562-2.7656-8.8594-7.4531-10.547-13.219-1.6875-5.625-1.0781-11.625 1.6875-16.781 2.7656-5.1562 7.4531-8.8594 13.219-10.547 5.625-1.6875 11.625-1.0781 16.781 1.6875l111 60.469c0.375 4.0781 1.2188 8.1562 2.5312 12 7.9219 24.609 30.703 40.219 55.312 40.219 5.8594 0 11.859-0.9375 17.766-2.7656 29.156-9.375 58.453-18.703 87.609-28.219l29.391-9.4688c9.4688-3 14.625-13.219 11.625-22.688s-13.219-14.625-22.688-11.625l-29.391 9.4688c-29.156 9.375-58.453 18.844-87.609 28.219-11.625 3.7031-24.141-2.625-27.844-14.297-0.84375-2.3906-1.2188-5.0625-1.0781-7.6875v-0.60937c0.14063-0.375 0.14063-0.70313 0.23438-0.9375 1.0781-8.5312 7.0781-15.844 15.141-18.375l137.86-44.391c31.922-10.312 63.141-7.4531 92.625 8.625l91.312 49.688-66.938 116.3c-28.688-15.516-60.141-18.516-91.359-8.5312zm140.44 85.453-39-22.453 12.141-21c0.14062-0.23438 0.23437-0.375 0.375-0.60938 0-0.14062 0.14062-0.14062 0.14062-0.23438l84.375-146.53c0.14063-0.23438 0.23438-0.375 0.375-0.60938 0-0.14062 0.14063-0.14062 0.14063-0.23438l12-20.859 39 22.453zm-209.76-553.22c10.219 9.9375 15.141 22.922 13.781 36.609-1.3125 13.922-9.375 27-21.375 34.922-5.7656 3.7031-12.234 6.4688-18.938 8.0625v10.781c0 9.9375-8.0625 18-18 18s-18-8.0625-18-18v-12.938c-17.531-6.2344-31.312-19.781-39.141-38.531-3.8438-9.1406 0.46875-19.688 9.6094-23.531s19.688 0.46875 23.531 9.6094c4.0781 9.7031 10.781 16.312 19.312 18.938 7.5469 2.2969 16.078 1.3125 21.844-2.3906 3-1.9219 5.0625-5.1562 5.2969-8.2969 0.23438-2.625-0.70312-5.0625-3-7.3125-2.5312-2.3906-11.062-4.4531-17.859-6-13.312-3.1406-29.859-7.0781-42.234-19.781-10.688-10.922-15.141-27.469-11.391-43.078 3.8438-16.078 15.234-28.453 31.312-33.844 0.84375-0.23438 1.7812-0.60938 2.625-0.84375v-11.859c0-9.9375 8.0625-18 18-18s18 8.0625 18 18v11.297c4.9219 1.2188 9.6094 3 13.781 5.3906 12.609 6.9375 21 17.766 24.375 31.453 2.3906 9.6094-3.4688 19.453-13.219 21.703-9.6094 2.3906-19.453-3.4688-21.703-13.219-0.9375-3.8438-3.1406-6.6094-6.7031-8.5312-6.2344-3.4688-15.703-3.9375-23.625-1.3125-4.2188 1.4531-6.8438 4.2188-7.7812 8.1562-0.84375 3.6094 0 7.4531 2.1562 9.6094 5.0625 5.1562 14.625 7.4531 24.703 9.8438 12.328 2.7188 25.031 5.7188 34.641 15.094zm-222-190.55h28.688c3.4688 0 6.8438 0.23438 10.078 0.60938-1.6875 1.5469-3.2344 3.2344-4.9219 4.7812-3.7031 3.6094-7.4531 7.2188-11.156 10.922-54.703 54-84.844 120.37-84.844 186.71 0 125.39 107.39 227.39 239.53 227.39s239.53-102 239.53-227.39c0-54.375-20.156-108.84-58.453-157.31-8.2969-10.453-16.922-20.062-25.781-29.391 7.5469-9.375 12-21.234 12-34.219 0-10.547-3-20.391-8.2969-28.781 14.062-9.9375 23.156-26.297 23.156-44.766 0-9.6094-2.5312-18.609-6.8438-26.531 16.078-9.6094 26.859-27.141 26.859-47.156 0-20.062-10.781-37.547-26.859-47.156 4.3125-7.7812 6.8438-16.922 6.8438-26.531 0-30.234-24.609-54.844-54.703-54.844h-29.156l3-16.219c4.0781-21.609-0.14062-38.297-12.703-49.688-13.453-12-32.625-13.547-47.766-3.8438l-7.7812 5.0625c-1.4531 0.84375-2.5312 0.84375-3.8438 0.14062l-8.0625-5.1562c-13.078-8.3906-29.391-8.3906-42.609 0l-7.9219 5.1562c-1.3125 0.84375-2.5312 0.84375-3.7031 0l-7.9219-5.1562c-15.141-9.7031-34.312-8.1562-47.766 3.9375-12.469 11.297-16.781 27.938-12.703 49.547l6.7031 35.859c-2.5312 1.5469-5.1562 3.2344-7.6875 5.0625l-7.4531 5.2969c-13.781 9.8438-28.219 14.531-45.234 14.531h-21.703v-2.2969c0-19.688-15.938-35.625-35.625-35.625h-96.844c-19.688 0-35.625 15.938-35.625 35.625v243.94c0 19.688 15.938 35.625 35.625 35.625h96.844c17.438 0.1875 31.734-12.047 35.109-28.125zm381 203.02c0 105.61-91.312 191.53-203.63 191.53-112.22 0-203.53-85.922-203.53-191.53 0-56.625 26.297-113.86 74.156-161.06 3.7031-3.6094 7.3125-7.2188 10.922-10.781 8.625-8.5312 17.391-17.062 25.781-25.922 0.375-0.375 0.60938-0.60938 0.84375-0.9375 24.141-25.781 45.234-54.703 53.531-94.219h39.703c0.23437 9.9375 3.2344 19.312 8.1562 27.375-14.062 9.9375-23.297 26.297-23.297 44.625 0 30.234 24.609 54.844 54.844 54.844h71.156c3.9375 0 7.7812-0.46875 11.531-1.2188 10.219 10.547 19.922 21.141 28.922 32.391 33.375 42.047 50.906 88.734 50.906 134.9zm-89.672-380.63-1.6875-6.2344h35.062c10.219 0 18.844 8.625 18.844 18.844s-8.625 18.844-18.844 18.844h-34.312c3.375-9.9844 3.8438-20.766 0.9375-31.453zm32.297 86.156c0 10.312-8.3906 18.844-18.703 18.844h-71.156c-10.219 0-18.844-8.625-18.844-18.844 0-8.5312 5.7656-15.844 13.688-18.141 7.4531 1.3125 15.234 1.2188 23.062-0.70312h53.203c10.359 0 18.75 8.3906 18.75 18.844zm-14.859 73.547c0 10.312-8.3906 18.844-18.844 18.844h-71.156c-10.312 0-18.844-8.3906-18.844-18.844 0-10.312 8.3906-18.703 18.844-18.703h71.156c10.312-0.14063 18.844 8.3906 18.844 18.703zm-117.52-108h-48.234c0-7.4531-0.375-15.234-1.0781-23.391 5.0625-10.312 8.1562-21.703 8.7656-33.844l24.141-6.4688 10.781 40.312c1.9219 7.2188 5.1562 13.547 9.4688 19.219-1.4062 1.3125-2.625 2.7656-3.8438 4.1719zm132.37-112.78c0 10.312-8.3906 18.844-18.703 18.844h-24.844l-10.078-37.688h34.922c10.312 0 18.703 8.5312 18.703 18.844zm-210.71-93.984c1.3125-1.0781 2.7656-1.3125 4.2188-0.375l8.0625 5.1562c13.078 8.2969 29.391 8.2969 42.469-0.14063l7.9219-5.1562c1.3125-0.84375 2.5312-0.84375 3.7031 0l8.0625 5.1562c13.078 8.2969 29.297 8.2969 42.609 0l7.9219-5.0625c1.9219-1.2188 3.4688-0.23437 4.0781 0.375 0.9375 0.84375 3.9375 3.6094 1.4531 16.312l-2.625 14.156c-13.219-7.9219-29.391-10.688-45.234-6.375l-78.609 21.141-5.5312-28.922c-2.4844-12.656 0.51562-15.281 1.5-16.266zm-90.469 119.67c24.609 0 46.219-6.9375 66.141-21.234l7.3125-5.2969c8.2969-5.8594 15.703-9.375 25.219-11.859l83.625-22.453c12.141-3.2344 24.609 3.9375 27.844 16.078l15.938 59.625c0.14062 0.60937 0.23438 1.0781 0.46875 1.6875l7.5469 27.938c2.625 9.9375-3.375 20.391-13.312 23.062-3.1406 0.84375-6.2344 0.84375-9.2344 0.14062-0.375-0.14062-0.70312-0.23437-1.0781-0.375-6-1.7812-11.062-6.6094-12.844-13.078l-15.469-57.609c-2.5312-9.6094-12.375-15.234-21.938-12.703l-54.703 14.625c-7.9219 2.1562-13.312 9.2344-13.312 17.391v9.2344c0 28.688-23.297 51.938-51.844 51.938-9.9375 0-18 8.0625-18 18s8.0625 18 18 18c15.703 0 30.609-4.2188 43.453-11.531-3.4688 34.219-18.234 58.781-38.766 82.219-12.375-4.5469-24.938-6.8438-38.859-6.8438h-27.844l-0.09375-176.95zm-57.609 205.31h-96.141v-243.14h96.141z"/>
</svg>
