<?xml version="1.0" encoding="UTF-8"?>
<svg width="1200pt" height="1200pt" version="1.1" viewBox="0 0 1200 1200" xmlns="http://www.w3.org/2000/svg">
 <path d="m843.94 930.37-88.453 153.61c-20.062-6.6094-40.922-6.6094-62.062 0.23438l-51.938 16.688c-27.469 8.8594-54.469 6.375-79.781-7.4531l-240.71-130.92c-19.922-10.922-27.469-36.141-16.547-56.156 10.781-19.922 36.141-27.469 56.062-16.547l90.469 49.219c-4.6875 15-5.0625 31.547 0.14062 47.625 13.312 41.156 57.609 63.938 98.859 50.625 34.312-11.062 68.625-22.078 103.08-33.141 9.7031-3.1406 15.141-13.688 12-23.391-3.2344-9.7031-13.688-15.141-23.391-12-34.312 11.062-68.625 22.078-103.08 33.234-21.703 6.9375-45.141-5.0625-52.078-26.766-6.8438-21.375 4.7812-45 26.625-52.078 47.391-15.234 94.922-30.609 142.31-45.844 38.062-12.234 75.234-8.7656 110.16 10.312zm117.75 15.703-53.766-30.938c-5.1562-3-11.766-1.2188-14.766 3.9375l-120.71 209.86c-2.8594 5.1562-1.2188 11.766 3.9375 14.766l53.766 30.938c5.1562 2.8594 11.766 1.2188 14.766-3.9375l120.84-209.76c2.8594-5.25 1.0781-11.859-4.0781-14.859zm-449.9-651.84h41.156c0.23438 8.2969 1.6875 16.078 4.3125 23.625-12.234 13.312-19.781 31.219-19.781 50.766 0 41.391 33.703 75.141 75.141 75.141h73.453c15.938 0 30.844-5.0625 43.078-13.547 4.4531 5.0625 8.8594 10.312 13.078 15.703 35.062 44.297 56.391 96.703 56.391 150.84 0 119.39-102.38 216.14-228.71 216.14-126.24 0-228.71-96.703-228.71-216.14 0-66.375 32.156-130.08 82.078-179.53 38.578-38.156 76.172-70.453 88.5-123zm81.609 324c-0.375 2.2969-1.4531 4.5469-3.2344 6.375-0.60938 0.60938-1.3125 1.2188-2.2969 1.7812-1.0781 0.70312-2.2969 1.3125-3.375 1.7812-5.3906 2.2969-11.859 2.7656-18.375 1.0781-6.375-1.6875-12.609-5.7656-17.156-12.844-1.3125-2.1562-2.5312-4.4531-3.6094-6.8438-3.8438-9.4688-14.766-13.922-24.234-9.9375-9.4688 3.9375-13.922 14.766-9.9375 24.234 2.0625 4.7812 4.3125 9.1406 6.8438 12.938 8.8594 13.688 20.859 22.219 33.609 26.859v13.453c0 10.312 8.2969 18.609 18.609 18.609s18.609-8.2969 18.609-18.609v-11.297c3.4688-0.84375 6.8438-1.9219 9.9375-3.2344 3.4688-1.4531 6.6094-3.1406 9.4688-4.9219 3-1.9219 5.8594-4.3125 8.5312-6.9375 7.3125-7.5469 12-17.062 13.453-27.234 1.4531-10.453-0.70312-21.469-7.0781-31.219-1.7812-2.7656-4.2188-5.625-6.9375-8.2969-9.9375-9.7031-22.453-12.703-35.766-15.844-9.8438-2.2969-20.297-4.7812-25.453-10.078-0.84375-0.84375-1.5469-2.0625-1.9219-3.375-0.70312-1.9219-0.84375-4.3125-0.375-6.4688s1.4531-3.9375 3-5.5312c1.3125-1.2188 3-2.2969 5.1562-3 0.84375-0.375 1.6875-0.60938 2.5312-0.70312 6.1406-1.4531 13.078-1.3125 18.938 0.84375 4.4531 1.6875 8.0625 4.5469 9.4688 8.8594 0.14062 0.46875 0.23438 0.84375 0.375 1.3125 2.3906 9.9375 12.469 15.938 22.453 13.547 9.8438-2.3906 15.938-12.469 13.547-22.453-0.375-1.5469-0.70312-3-1.2188-4.3125-5.5312-16.219-17.531-26.531-31.781-31.781-2.0625-0.70312-4.2188-1.4531-6.2344-1.9219v-11.625c0-10.312-8.3906-18.609-18.609-18.609-10.312 0-18.609 8.3906-18.609 18.609v12.375c-0.9375 0.23438-1.7812 0.46875-2.7656 0.84375-7.6875 2.625-13.922 6.6094-19.078 11.625-7.0781 6.8438-11.531 15.375-13.453 24.234-1.9219 8.625-1.4531 17.859 1.4531 26.156 2.1562 6.375 5.625 12.375 10.547 17.297 12.844 13.078 28.688 16.781 43.688 20.391 8.1562 1.9219 15.844 3.7031 18.375 6.2344 0.60938 0.60938 1.2188 1.3125 1.6875 2.1562 0.98438 1.5469 1.4531 3.5625 1.2188 5.4844zm-107.16-541.08c3.7031-1.3125 7.4531-2.5312 11.391-3.4688l86.391-23.156c26.062-6.9375 52.781 0.14062 72 16.453l0.60938-3.1406c2.3906-12.844 2.1562-25.547-7.3125-33.938-7.5469-6.7031-18.234-7.6875-26.766-2.2969l-8.1562 5.2969c-7.4531 4.7812-16.453 4.7812-23.859 0l-8.5312-5.2969c-7.4531-4.7812-16.453-4.7812-23.859 0l-8.2969 5.2969c-7.4531 4.7812-16.453 4.7812-23.859 0l-8.2031-5.2969c-8.5312-5.3906-19.312-4.5469-26.859 2.2969-9.375 8.4844-9.7031 21.094-7.3125 33.938zm79.312 174c-2.0625-4.3125-3.7031-8.7656-5.0625-13.453l-3.7031-13.922c-3.4688 12-9 23.156-16.312 33.141h21.469c1.2188-1.9219 2.2969-3.8438 3.6094-5.7656zm134.68-72.609 5.3906 20.156c5.2969 19.453 2.1562 39.234-6.9375 55.781-9.6094 17.297-25.781 30.844-46.219 36.234-21.375 5.625-43.219 1.4531-60.469-9.8438-1.2188 3.6094-1.7812 7.5469-1.7812 11.531 0 20.859 17.062 38.062 37.922 38.062h-15.469c-20.859 0-37.922 17.062-37.922 37.922s17.062 38.062 37.922 38.062h73.453c20.859 0 37.922-17.062 37.922-38.062 0-20.859-17.062-37.922-37.922-37.922h15.469c20.859 0 37.922-17.062 37.922-38.062 0-20.859-17.062-37.922-37.922-37.922h20.625c20.859 0 37.922-17.062 37.922-38.062 0-20.859-17.062-37.922-37.922-37.922h-20.625c20.859 0 37.922-17.062 37.922-38.062 0-20.859-17.062-37.922-37.922-37.922h-21.844c0.375 1.3125 0.70312 2.625 1.2188 3.8438zm-280.45 189.98c22.922-22.781 41.062-42.844 50.859-67.547-2.5312 0.46875-5.0625 0.84375-7.5469 1.0781-5.3906 0.46875-10.312-1.0781-14.391-4.6875-3.9375-3.6094-6.1406-8.3906-6.1406-13.781 0-9.6094 7.2188-17.531 16.688-18.469 6.8438-0.70312 13.453-2.3906 19.547-4.7812l0.23438-0.14062c26.297-10.781 45-36.703 45-66.844v-0.60938c0-5.2969 3.4688-9.8438 8.625-11.156l36.609-9.8438c6.2344-1.6875 12.609 2.0625 14.297 8.1562l12.938 48.375c5.3906 20.156 26.391 32.297 46.453 26.859 20.156-5.3906 32.297-26.391 26.859-46.547l-15.938-59.531-8.7656-32.766c-6-22.453-29.156-35.766-51.469-29.766l-86.391 23.062c-12 3.2344-21.844 7.7812-31.922 15.141l-7.6875 5.3906c-17.531 12.609-36 18.469-57.469 18.469h-3.8438v219.79h10.219c1.0781 0 2.1562 0 3.2344 0.14062zm-50.625 10.922v-251.76c0-9.9375-8.1562-18.141-18.141-18.141h-99.938c-9.9375 0-18.141 8.1562-18.141 18.141v251.76c0 9.9375 8.1562 18.141 18.141 18.141h99.938c9.9375 0.09375 18.141-8.2031 18.141-18.141z" fill-rule="evenodd"/>
</svg>
