<?xml version="1.0" encoding="UTF-8"?>
<svg width="1200pt" height="1200pt" version="1.1" viewBox="0 0 1200 1200" xmlns="http://www.w3.org/2000/svg">
 <path d="m543.61 422.06c0-24.703 16.219-45.703 38.391-53.062v-18.609c0-9.9375 8.0625-18 18-18s18 8.0625 18 18v16.688c13.781 2.5312 26.391 10.312 34.922 21.703 5.8594 8.0625 4.2188 19.219-3.7031 25.219-8.0625 5.8594-19.219 4.2188-25.219-3.7031-3.7031-5.0625-9.7031-8.0625-15.938-8.0625h-8.7656c-10.922 0-19.781 8.8594-19.781 19.781s8.8594 19.781 19.781 19.781h4.4531c1.3125 0 2.7656 0.14062 3.9375 0.46875 27.469 3.4688 48.703 26.859 48.703 55.312 0 24.703-16.219 45.703-38.391 52.922v18.609c0 9.9375-8.0625 18-18 18s-18-8.0625-18-18v-16.688c-13.781-2.5312-26.391-10.312-34.922-21.703-5.8594-8.0625-4.2188-19.219 3.7031-25.219 8.0625-5.8594 19.219-4.2188 25.219 3.7031 3.7031 5.0625 9.7031 8.0625 15.844 8.0625h8.7656c10.922 0 19.781-8.8594 19.781-19.781s-8.8594-19.781-19.781-19.781h-4.3125c-1.3125 0-2.625-0.14062-3.9375-0.46875-27.516-3.2344-48.75-26.766-48.75-55.172zm623.76 542.39c-4.4531 6.8438-11.297 11.531-19.312 13.219l-123.37 26.391-111.23 23.766c-89.391 64.781-170.16 102.23-246.37 114.23-1.4531 1.5469-2.8594 3-4.5469 4.4531l-15.938 14.156c-11.812 10.266-26.438 15.328-40.969 15.328-17.156 0-34.219-7.0781-46.453-20.859-6.1406-6.9375-10.312-14.859-12.844-23.156l-9.4688 8.2969c-11.766 10.312-26.297 15.375-40.781 15.375-17.156 0-34.219-7.0781-46.453-20.859-6-6.8438-10.312-14.766-12.844-23.297-11.156 9.375-24.938 14.391-39.609 14.391-1.3125 0-2.625 0-4.0781-0.14062-16.547-1.0781-31.547-8.3906-42.469-20.766-6.8438-7.6875-11.297-16.688-13.547-26.062-8.0625 3.7031-16.688 5.625-25.688 5.625-1.3125 0-2.625 0-4.0781-0.14062-15.938-1.0781-30.703-8.0625-41.391-19.688-0.375-0.375-0.70313-0.70312-1.0781-1.0781-11.297-12.703-16.219-28.922-15.234-44.625-20.766-6.1406-40.688-10.219-60.375-12.234-0.60938-0.14062-1.2188-0.14062-1.9219-0.23438l-12.234-2.625-123.37-26.391c-7.9219-1.6875-14.766-6.375-19.219-13.219s-6-15.141-4.3125-23.156l60.234-281.76c1.6875-7.9219 6.375-14.766 13.219-19.219s15-6 23.062-4.2188l123.37 26.297 69 14.766c14.297-4.3125 28.453-8.7656 43.453-13.453 16.219-5.0625 32.531-10.219 49.078-15.141-53.859-48.938-85.312-117.38-85.312-189 0-50.297 15.469-101.86 44.859-149.16 24-38.625 56.766-73.547 95.391-102.23-4.6875-7.5469-7.4531-16.453-7.4531-25.922 0-25.922 20.297-47.297 45.844-49.078l-17.062-39.469c-8.7656-20.297-3.7031-43.922 12.703-58.781 14.531-13.078 35.391-14.859 51.844-4.3125l9.2344 5.8594c2.5312 1.5469 5.0625 1.5469 7.5469 0l9.375-5.8594c14.156-9.1406 31.922-9.1406 46.219 0l9.375 5.8594c2.5312 1.5469 5.0625 1.5469 7.4531 0l9.375-5.8594c16.453-10.547 37.312-8.7656 51.844 4.3125 16.312 14.766 21.469 38.391 12.703 58.688l-17.062 39.469c25.547 1.7812 45.844 23.062 45.844 49.078 0 9.4688-2.7656 18.469-7.4531 26.062 38.625 28.547 71.391 63.609 95.391 102.14 29.391 47.297 44.859 98.766 44.859 149.16 0 68.859-28.078 133.69-78 182.29 26.391 9.9375 52.219 22.219 77.391 37.078l76.781-16.453h0.23438l123.14-26.297c16.453-3.6094 32.766 6.9375 36.234 23.391l60.234 281.76c2.25 8.1562 0.65625 16.453-3.75 23.297zm-304.92-251.06c-33-19.922-66.938-35.297-102.47-46.219-2.5312-0.23438-5.0625-0.9375-7.3125-2.1562-72.469-20.859-150.61-23.062-236.16-6.6094l-111.38 103.78c-16.688 15.469-20.297 24.938-20.391 27.609 1.2188 1.0781 5.7656 3.375 15.469 3.8438 34.781 1.7812 93.469-19.688 138.14-64.219 4.0781-4.0781 9.7031-5.8594 15.469-5.0625 5.625 0.84375 10.547 4.3125 13.219 9.4688 36 68.859 103.08 102.61 174.14 138.24 61.312 30.844 124.55 62.625 171.71 119.06l74.297-15.844-57.938-271.22-53.859 11.531c-4.4531 0.9375-9.0938 0.1875-12.938-2.2031zm-343.22-633.71 23.156 53.625h115.31l23.156-53.531c2.625-6.2344 1.2188-13.312-3.7031-17.766-2.3906-2.1562-5.625-2.3906-8.3906-0.70312l-9.375 5.8594c-14.156 9.1406-31.922 9.1406-46.219 0l-9.3281-5.9531c-2.5312-1.5469-5.0625-1.5469-7.5469 0l-9.375 6c-14.297 9.1406-31.922 9.1406-46.219 0l-9.2344-6c-2.7656-1.7812-6-1.5469-8.3906 0.70312-5.0156 4.5469-6.6094 11.531-3.8438 17.766zm-25.781 102.7c0 7.3125 5.8594 13.219 13.219 13.219h186.71c7.2188 0 13.312-6 13.312-13.219s-6.1406-13.219-13.312-13.219h-24.047l-138.56 0.046876h-24.141c-7.3125 0-13.172 6-13.172 13.172zm-41.672 454.31c17.297-4.5469 34.781-8.8594 52.547-12.609h0.14062c91.547-18.234 175.45-16.688 253.45 4.9219 51.844-42.844 81.469-104.06 81.469-169.31 0-84.234-51.703-171.47-135.37-229.31-3.4688 0.70312-7.0781 1.2188-10.688 1.2188h-186.71c-3.7031 0-7.3125-0.375-10.688-1.2188-83.766 57.844-135.37 144.94-135.37 229.31-0.09375 68.766 33.891 134.44 91.219 177zm-387.1 306.84 112.69 24.141 57.938-271.22-112.78-24.141zm263.86 98.906 27.703-24.469 30-26.391c10.688-9.4688 11.625-25.781 2.2969-36.469-4.5469-5.1562-10.781-8.1562-17.766-8.625-6.9375-0.46875-13.547 1.7812-18.703 6.375l-57.703 50.859c-10.453 9.2344-11.625 24.938-2.8594 35.625l0.70312 0.70312c4.4531 5.1562 10.781 8.1562 17.625 8.625 6.8438 0.60938 13.547-1.6875 18.703-6.2344zm85.828 41.25 46.688-41.156 11.156-9.8438c10.547-9.4688 11.531-25.688 2.1562-36.375-4.4531-5.1562-10.781-8.1562-17.625-8.625h-1.6875c-6.375 0-12.375 2.2969-17.062 6.375l-27.703 24.469-30 26.391c-10.688 9.375-11.625 25.781-2.2969 36.469 4.5469 5.1562 10.781 8.1562 17.766 8.625 6.8438 0.42188 13.453-1.875 18.609-6.3281-0.14062 0-0.14062 0 0 0zm156.47-21.234c10.688-9.4688 11.766-25.781 2.2969-36.469-5.0625-5.7656-12.234-8.7656-19.453-8.7656-6.1406 0-12.234 2.1562-17.062 6.4688l-40.688 35.859-0.23438 0.23438-10.312 9.1406-6.4688 5.625c-5.1562 4.5469-8.2969 10.781-8.625 17.766-0.46875 6.9375 1.7812 13.547 6.375 18.703 9.375 10.688 25.781 11.625 36.469 2.2969zm67.922 57c10.688-9.4688 11.766-25.781 2.2969-36.469-9.375-10.688-25.781-11.625-36.469-2.2969l-15.938 14.156c-10.688 9.4688-11.766 25.781-2.2969 36.469 9.375 10.688 25.781 11.625 36.469 2.2969zm44.625-17.156c60.609-13.688 125.29-44.766 196.31-94.688-42.141-46.922-99.234-75.609-154.69-103.45-66.609-33.469-135.24-68.062-178.08-133.78-57.469 48.234-128.76 67.078-166.78 56.391-21.938-6.2344-28.453-20.391-30.375-28.219-4.4531-18.469 6-39.609 30.844-62.625l64.312-60c-24.938 7.0781-49.453 14.766-73.547 22.219-15.938 5.0625-32.391 10.078-48.375 14.859-1.6875 0.46875-3.375 0.70312-5.1562 0.70312-1.2188 0-2.5312-0.14062-3.7031-0.375l-43.688-9.375-57.609 269.76c16.219 2.625 32.625 6.4688 49.453 11.625 2.3906-3.1406 5.0625-6 8.1562-8.7656l57.703-50.859c12.375-10.922 28.219-16.312 44.766-15.234s31.547 8.3906 42.469 20.766c6.8438 7.6875 11.297 16.688 13.547 25.922 9.1406-4.2188 19.312-6.1406 29.766-5.5312 16.547 1.0781 31.547 8.3906 42.375 20.766 6.1406 6.9375 10.312 14.859 12.844 23.156 25.547-21.469 63.844-18.703 86.062 6.4688 9.375 10.547 14.297 23.391 15.234 36.469 19.219-1.9219 38.859 5.0625 52.547 20.531 11.062 12.422 16.078 28.031 15.609 43.266zm451.92-158.76-57.938-271.08-112.78 24.141 57.938 271.22z"/>
</svg>
