<?xml version="1.0" encoding="UTF-8"?>
<svg width="1200pt" height="1200pt" version="1.1" viewBox="0 0 1200 1200" xmlns="http://www.w3.org/2000/svg">
 <path d="m568.22 595.69c81.609-8.2969 157.31 0.84375 230.29 26.625 41.859-44.391 67.312-102.84 67.312-167.06 0-89.062-49.781-174.14-123.84-234.14-12.234 10.688-28.219 17.156-45.469 17.156l-192.89 0.046875c-17.391 0-33.375-6.4688-45.469-17.156-74.062 60-123.84 144.94-123.84 234.14 0 67.688 28.453 129.14 74.391 174.37 51.844-15.281 104.06-28.359 159.52-33.984zm-9.6094-219.98c6.375-6.375 14.062-11.297 22.781-14.062v-19.219c0-10.312 8.3906-18.609 18.609-18.609s18.609 8.2969 18.609 18.609v17.297c5.5312 0.9375 10.688 2.7656 15.609 5.2969 8.0625 4.0781 15 9.9375 20.391 17.156 6.1406 8.2969 4.4531 19.781-3.8438 25.922-8.2969 6-19.781 4.3125-25.922-3.8438-1.9219-2.5312-4.4531-4.6875-7.3125-6.2344-2.7656-1.3125-5.9062-2.0156-9.2344-2.0156h-9c-5.625 0-10.688 2.2969-14.391 6s-6 8.7656-6 14.391c0 5.5312 2.2969 10.688 6 14.391s8.7656 6 14.391 6h4.5938c1.4531 0 2.7656 0.14062 4.0781 0.46875 12.938 1.5469 24.609 7.5469 33.375 16.453 10.453 10.453 16.922 24.844 16.922 40.688s-6.4688 30.234-16.922 40.688c-6.375 6.375-14.062 11.297-22.781 14.062v19.219c0 10.312-8.2969 18.609-18.609 18.609s-18.609-8.2969-18.609-18.609v-17.297c-5.5312-0.9375-10.688-2.7656-15.609-5.2969-8.0625-4.0781-15-9.9375-20.391-17.156-6-8.2969-4.3125-19.781 3.8438-25.922 8.2969-6 19.781-4.3125 25.922 3.8438 1.9219 2.5312 4.4531 4.6875 7.3125 6.2344 2.7656 1.3125 5.8594 2.1562 9.2344 2.1562h9c5.5312 0 10.688-2.2969 14.391-6s6-8.7656 6-14.391c0-5.5312-2.2969-10.688-6-14.391s-8.8594-6-14.391-6h-4.5938c-1.4531 0-2.7656-0.14062-4.0781-0.46875-12.938-1.5469-24.703-7.5469-33.469-16.453-10.453-10.453-16.922-24.844-16.922-40.688 0.09375-15.984 6.7031-30.469 17.016-40.828zm-59.062-305.39c-6-13.922-2.3906-29.625 8.5312-39.469 8.7656-7.9219 21.234-8.8594 31.078-2.625l9.4688 6c8.625 5.5312 19.078 5.5312 27.703 0l9.6094-6.1406c8.625-5.5312 19.078-5.5312 27.703 0l9.6094 6.1406c8.625 5.5312 19.078 5.5312 27.844 0l9.4688-6c9.9375-6.375 22.453-5.2969 31.219 2.625 10.922 9.8438 14.531 25.547 8.5312 39.469l-12.469 29.297h-175.55zm-28.078 98.625c0-17.766 14.531-32.156 32.156-32.156h192.71c17.625 0 32.156 14.531 32.156 32.156s-14.531 32.156-32.156 32.156l-192.71 0.046876c-17.766 0.09375-32.156-14.438-32.156-32.203zm414.84 876.14c-69.141 46.781-129.37 74.391-183.47 88.547 5.2969-24.703-0.70312-51.609-18.609-71.766-14.062-15.938-33-25.078-52.781-27.234-3.2344-11.391-9-22.219-17.297-31.547-24-27.375-62.859-34.781-94.781-21-2.1562-3.375-4.5469-6.6094-7.3125-9.6094-19.781-22.547-49.688-31.547-77.391-26.391-3-5.625-6.7031-11.156-11.156-16.219-29.859-33.938-82.453-37.219-116.3-7.3125l-59.531 52.453c-11.062 9.7031-18.844 21.844-23.297 34.781-3.6094-0.84375-7.2188-1.6875-10.781-2.3906 1.5469-3.375 2.7656-6.8438 3.6094-10.547l62.156-290.86c0.9375-4.4531 1.3125-8.7656 1.0781-12.938l28.453 6c39.609-11.766 80.062-25.312 121.78-37.219l-69.703 65.062c-22.219 20.625-44.625 49.781-37.219 82.219 7.4531 31.922 37.688 45.234 67.688 46.781 50.531 2.5312 107.16-22.078 150-53.156 42.609 55.781 102.23 89.062 165.37 120.94 60.938 30.844 126.94 61.312 172.31 114.23 2.1562 2.4844 4.5469 5.0156 7.1719 7.1719zm96.469-48.375c0.84375 4.4531 2.3906 8.5312 4.3125 12.375l-57.375 12.375c-8.625 1.7812-16.781-0.9375-22.547-7.6875-99.469-116.39-273.71-127.55-350.53-254.39-1.7812-3.1406-4.6875-4.9219-8.2969-5.5312-3.4688-0.46875-6.7031 0.46875-9.4688 2.8594-99.469 88.781-238.92 76.781-152.86-2.7656l114-106.22c3.375-3.1406 6.9375-4.9219 11.531-5.8594 152.06-28.781 270.24-0.23438 368.76 59.391l39.141-8.3906c-0.23438 4.3125 0.14062 8.625 1.0781 12.938zm-591.1 21.375-59.531 52.453c-18.703 16.453-47.391 14.625-63.844-3.9375-16.453-18.609-14.625-47.391 3.9375-63.844l59.531-52.453c18.609-16.453 47.391-14.625 63.844 3.9375 16.453 18.703 14.672 47.391-3.9375 63.844zm71.156 57.844-42.234 37.312c-18.609 16.453-47.391 14.625-63.844-3.9375-16.453-18.703-14.625-47.391 3.9375-63.844l59.531-52.547c18.609-16.453 47.391-14.625 63.844 3.9375 16.453 18.703 14.625 47.297-3.9375 63.844zm113.02 21-53.156 46.922c-18.703 16.453-47.391 14.625-63.844-3.9375-16.453-18.609-14.625-47.297 3.9375-63.703l17.391-15.375 42.141-37.219c18.703-16.453 47.391-14.625 63.844 3.9375 16.312 18.609 14.625 47.062-3.7031 63.609zm80.438-10.547c16.453 18.703 14.625 47.391-3.9375 63.844l-16.547 14.625c-18.609 16.453-47.391 14.625-63.844-3.9375-16.453-18.703-14.625-47.297 3.9375-63.703l6.4688-5.625 0.23438-0.23438 9.8438-8.7656c18.703-16.734 47.391-14.953 63.844 3.7969zm-413.29-388.31-62.156 290.86c-1.4531 6.9375-8.3906 11.531-15.375 9.9375l-127.31-27.094c-6.9375-1.5469-11.531-8.3906-9.9375-15.469l62.156-290.76c1.4531-6.9375 8.3906-11.531 15.375-9.9375l127.31 27.234c6.9375 1.4062 11.484 8.3906 9.9375 15.234zm918.94 273.71-127.31 27.141c-6.9375 1.5469-13.922-2.8594-15.375-9.9375l-62.156-290.86c-1.4531-6.9375 3-13.922 9.9375-15.375l127.31-27.234c6.9375-1.4531 13.922 3 15.469 9.9375l62.156 290.76c1.4062 7.0312-3.0469 14.016-10.031 15.562z" fill-rule="evenodd"/>
</svg>
