<svg width="32" height="32" viewBox="0 0 32 32" fill="none" xmlns="http://www.w3.org/2000/svg">
<path fill-rule="evenodd" clip-rule="evenodd" d="M1.99991 27.7573H14.8319L14.8539 27.7553C14.9499 27.7403 15.3319 27.6543 15.3319 27.2443V26.3353C15.3319 25.9933 15.1969 25.6664 14.9549 25.4243C14.713 25.1823 14.386 25.0473 14.0439 25.0473H2.78896C2.44699 25.0473 2.11896 25.1823 1.87699 25.4243C1.63594 25.6663 1.5 25.9932 1.5 26.3353V27.2443C1.5 27.7132 2 27.7573 2 27.7573L1.99991 27.7573ZM2.49991 27.2503V27.2573C2.49991 27.5343 2.27596 27.7573 1.99991 27.7573C1.99991 27.7573 2.49597 27.7133 2.49991 27.2503ZM14.3319 26.7573H2.49991V26.3353C2.49991 26.2583 2.52991 26.1853 2.58491 26.1314C2.63887 26.0774 2.71189 26.0474 2.78887 26.0474H14.0438C14.1198 26.0474 14.1938 26.0774 14.2478 26.1314C14.3017 26.1853 14.3317 26.2583 14.3317 26.3353V26.7573H14.3319ZM10.3828 7.25915L6.73191 15.0253L6.70796 15.0142C6.45296 14.8942 6.16097 14.8803 5.89598 14.9762C5.62994 15.0723 5.41401 15.2692 5.29401 15.5243C5.15599 15.8173 4.98401 16.1832 4.84702 16.4753C4.72702 16.7313 4.71307 17.0233 4.809 17.2883C4.904 17.5533 5.10097 17.7703 5.35599 17.8903C6.66401 18.5042 10.124 20.1323 11.432 20.7463C11.687 20.8663 11.979 20.8802 12.244 20.7843C12.51 20.6893 12.7259 20.4913 12.8459 20.2363C12.984 19.9443 13.1559 19.5773 13.2929 19.2852C13.4129 19.0302 13.4269 18.7372 13.3309 18.4722C13.2359 18.2072 13.039 17.9902 12.784 17.8702L12.76 17.8602L13.822 15.6033L27.346 22.4073C27.832 22.6523 28.396 22.6892 28.909 22.5123C29.4229 22.3353 29.844 21.9573 30.075 21.4653C30.1281 21.3533 30.1811 21.2392 30.234 21.1272C30.465 20.6353 30.488 20.0712 30.297 19.5622C30.105 19.0533 29.717 18.6433 29.219 18.4252L15.3499 12.3514L16.4119 10.0944L16.4349 10.1044C16.6899 10.2244 16.9819 10.2384 17.2479 10.1434C17.5129 10.0473 17.729 9.85034 17.849 9.59532C17.987 9.30231 18.159 8.93636 18.297 8.64335C18.417 8.38835 18.43 8.09636 18.335 7.83034C18.239 7.56534 18.042 7.3493 17.787 7.2293C16.48 6.61431 13.019 4.98732 11.7121 4.3733C11.456 4.2533 11.164 4.23934 10.899 4.33434C10.634 4.43038 10.4171 4.62735 10.2971 4.88237C10.1601 5.17538 9.98707 5.54133 9.85009 5.83434C9.73008 6.08934 9.71613 6.38133 9.81206 6.64735C9.90706 6.91235 10.104 7.12839 10.3601 7.24839L10.3831 7.25943L10.3828 7.25915ZM14.9247 13.2562L28.8178 19.3413C29.0678 19.4513 29.2638 19.6573 29.3598 19.9133C29.4567 20.1702 29.4448 20.4543 29.3287 20.7022C29.2757 20.8142 29.2227 20.9272 29.1698 21.0402C29.0528 21.2872 28.8417 21.4772 28.5828 21.5672C28.3238 21.6562 28.0398 21.6372 27.7958 21.5142L14.2467 14.6971L14.9247 13.2561L14.9247 13.2562ZM6.28285 15.9192L12.3578 18.7752C12.3728 18.7833 12.3848 18.7952 12.3908 18.8113C12.3958 18.8273 12.3958 18.8443 12.3878 18.8593L11.9408 19.8113C11.9338 19.8263 11.9208 19.8383 11.9048 19.8433C11.8898 19.8493 11.8717 19.8483 11.8567 19.8413C10.5497 19.2273 7.08873 17.5993 5.7818 16.9853C5.7668 16.9783 5.75482 16.9653 5.74878 16.9492C5.74378 16.9332 5.74378 16.9162 5.7518 16.9012L6.19878 15.9492C6.20576 15.9342 6.21878 15.9232 6.23483 15.9173C6.24983 15.9112 6.26785 15.9123 6.28285 15.9192ZM15.5068 9.6683L11.2879 7.68529L7.63698 15.4514L11.8551 17.4344L15.5068 9.6683ZM10.785 6.34323L16.8599 9.2003C16.8749 9.20728 16.8929 9.20728 16.9089 9.20228C16.9239 9.19624 16.9369 9.18426 16.9439 9.16926L17.3919 8.21822C17.3989 8.20322 17.3999 8.1852 17.3939 8.1702C17.3878 8.15416 17.3769 8.14124 17.3609 8.13416L11.2859 5.27709C11.2709 5.27011 11.2539 5.27011 11.2379 5.27511C11.2219 5.28115 11.2089 5.29313 11.2019 5.30813L10.7549 6.25917C10.7479 6.27417 10.7469 6.29219 10.7529 6.30719C10.7579 6.32323 10.7699 6.33615 10.7849 6.34323H10.785Z" fill="black"/>
</svg>
