<svg width="32" height="32" viewBox="0 0 32 32" fill="none" xmlns="http://www.w3.org/2000/svg">
<path fill-rule="evenodd" clip-rule="evenodd" d="M1.99991 27.7574H14.8319L14.8539 27.7554C14.9499 27.7404 15.3319 27.6543 15.3319 27.2443V26.3354C15.3319 25.9934 15.1969 25.6664 14.9549 25.4243C14.713 25.1824 14.386 25.0474 14.0439 25.0474H2.78896C2.44699 25.0474 2.11896 25.1824 1.87699 25.4243C1.63594 25.6663 1.5 25.9933 1.5 26.3354V27.2443C1.5 27.7133 2 27.7574 2 27.7574L1.99991 27.7574ZM15.809 12.5512L14.2679 15.8272L27.3461 22.4072C27.8321 22.6522 28.3961 22.6892 28.9091 22.5122C29.423 22.3353 29.8441 21.9572 30.0751 21.4652C30.1282 21.3533 30.1812 21.2392 30.2341 21.1272C30.4651 20.6352 30.4881 20.0712 30.2971 19.5622C30.1051 19.0532 29.7171 18.6432 29.2191 18.4252L15.809 12.5513L15.809 12.5512ZM6.70791 15.0142C6.45291 14.8942 6.16093 14.8803 5.89594 14.9762C5.6299 15.0723 5.41397 15.2692 5.29397 15.5242C5.15595 15.8173 4.98397 16.1832 4.84698 16.4753C4.72698 16.7313 4.71302 17.0233 4.80896 17.2883C4.90396 17.5533 5.10093 17.7703 5.35595 17.8903C6.66397 18.5042 10.1239 20.1322 11.4319 20.7463C11.6869 20.8663 11.9789 20.8802 12.2439 20.7843C12.51 20.6893 12.7259 20.4913 12.8459 20.2363C12.9839 19.9443 13.1559 19.5773 13.2929 19.2852C13.4129 19.0302 13.4268 18.7372 13.3309 18.4722C13.2359 18.2072 13.0389 17.9902 12.7839 17.8702C11.4759 17.2563 8.01591 15.6292 6.70791 15.0142ZM16.1988 10.5462L12.9727 17.4073L6.94365 14.5734L10.1698 7.71237L16.1988 10.5462ZM11.7119 4.37317C11.4559 4.25317 11.1639 4.23922 10.8989 4.33422C10.6339 4.43026 10.4169 4.62723 10.2969 4.88224C10.1599 5.17526 9.98693 5.5412 9.84994 5.83422C9.72994 6.08922 9.71598 6.3812 9.81192 6.64723C9.90692 6.91223 10.1039 7.12827 10.3599 7.24827C11.6669 7.86326 15.1279 9.49024 16.4349 10.1043C16.6899 10.2243 16.9819 10.2382 17.2479 10.1432C17.5129 10.0472 17.7289 9.85021 17.8489 9.5952C17.987 9.30219 18.1589 8.93624 18.297 8.64323C18.417 8.38823 18.43 8.09624 18.335 7.83021C18.2389 7.56521 18.042 7.34917 17.787 7.22917C16.48 6.61419 13.019 4.9872 11.712 4.37317H11.7119Z" fill="black"/>
</svg>
