<?xml version="1.0" encoding="UTF-8"?>
<svg width="1200pt" height="1200pt" version="1.1" viewBox="0 0 1200 1200" xmlns="http://www.w3.org/2000/svg">
 <path d="m1128.9 1095.2h-1057.8c-18.516 0-33.562 15.094-33.562 33.562 0 18.562 15.094 33.656 33.562 33.656h1057.8c18.562 0 33.609-15.094 33.609-33.656 0.046875-18.516-15.047-33.562-33.562-33.562z"/>
 <path d="m121.22 658.92c-7.9688 0-14.438 6.4688-14.438 14.438v393h202.78v-393c0-7.9688-6.4688-14.438-14.438-14.438z"/>
 <path d="m382.45 461.16c-7.9688 0-14.438 6.4688-14.438 14.438v590.72h202.74v-590.72c0-7.9688-6.4688-14.438-14.438-14.438z"/>
 <path d="m643.64 658.92c-7.9688 0-14.438 6.4688-14.438 14.438v393h202.78l0.046875-393c0-7.9688-6.4688-14.438-14.438-14.438z"/>
 <path d="m890.44 475.6v590.72h202.78l0.046875-590.72c0-7.9688-6.4688-14.438-14.438-14.438h-173.9c-8.0156 0-14.484 6.4688-14.484 14.438z"/>
 <path d="m195.52 353.53c87.141 0 158.06-70.875 158.06-158.02s-70.922-158.02-158.06-158.02c-87.094 0-158.02 70.875-158.02 158.06 0 87.141 70.875 157.97 158.02 157.97zm-14.438-245.16v-14.906c0-7.9688 6.4688-14.438 14.438-14.438s14.438 6.4688 14.438 14.438v14.859c14.719 4.2188 27 14.812 33.281 29.297 3.1406 7.3125-0.23438 15.844-7.5938 18.984-7.3125 3.1406-15.844-0.23438-18.938-7.5938-3.6562-8.4375-11.953-13.875-21.141-13.875-12.656 0-22.969 10.312-22.969 22.969s10.266 22.969 22.969 22.969c28.594 0 51.844 23.25 51.844 51.844 0 23.578-15.844 43.547-37.406 49.781v14.906c0 7.9688-6.4688 14.438-14.438 14.438s-14.438-6.4688-14.438-14.438v-14.859c-14.719-4.2656-27-14.859-33.281-29.391-3.0938-7.3125 0.28125-15.844 7.5938-18.938 7.3125-3.1406 15.844 0.28125 18.938 7.5938 3.6562 8.4375 11.906 13.922 21.141 13.922 12.656 0 22.969-10.266 22.969-22.969 0-12.656-10.312-22.969-22.969-22.969-28.594 0-51.844-23.25-51.844-51.844 0-23.625 15.797-43.594 37.406-49.781z"/>
 <path d="m411.94 319.18-167.02 167.02c-10.594-6.8438-23.25-10.781-36.75-10.781-37.688 0-68.344 30.656-68.344 68.25 0 37.688 30.656 68.344 68.344 68.344s68.344-30.656 68.344-68.344c0-13.688-4.0312-26.438-11.062-37.125l166.87-166.87c10.688 6.9375 23.438 10.969 37.031 10.969 13.641 0 26.344-4.0312 36.984-10.969l166.78 167.11c-6.9375 10.641-10.969 23.344-10.969 36.984 0 37.688 30.656 68.344 68.344 68.344s68.344-30.656 68.344-68.344c0-13.641-4.0312-26.344-10.969-36.984l167.44-167.34c10.688 6.8906 23.391 10.922 36.984 10.922 37.688 0 68.344-30.656 68.344-68.297 0-37.688-30.656-68.344-68.344-68.344s-68.344 30.656-68.344 68.344c0 13.641 4.0312 26.344 10.969 37.031l-167.44 167.34c-10.688-6.8906-23.391-10.922-36.938-10.922-13.594 0-26.297 3.9844-36.984 10.922l-166.87-167.11c6.8906-10.641 10.922-23.344 10.922-36.984 0-37.688-30.656-68.344-68.25-68.344-37.688 0-68.344 30.656-68.344 68.344 0.046875 13.5 3.9844 26.203 10.922 36.844z"/>
</svg>
