<?xml version="1.0" encoding="UTF-8"?>
<svg width="1200pt" height="1200pt" version="1.1" viewBox="0 0 1200 1200" xmlns="http://www.w3.org/2000/svg">
 <path d="m1098.9 1035.4h-29.062v-552.71c0-10.031-8.1562-18.188-18.188-18.188h-164.06c-10.031 0-18.188 8.1562-18.188 18.188v552.74h-46.031l0.046875-366.19c0-10.031-8.1562-18.188-18.188-18.188h-164.06c-10.031 0-18.188 8.1562-18.188 18.188v366.14h-46.125l0.046875-552.71c0-10.031-8.1562-18.188-18.188-18.188h-164.06c-10.031 0-18.188 8.1562-18.188 18.188v552.74l-46.031-0.046875v-366.14c0-10.031-8.1562-18.188-18.188-18.188l-163.97 0.046875c-10.031 0-18.188 8.1562-18.188 18.188v366.14l-29.062-0.046875c-35.062 0-63.562 28.5-63.562 63.562s28.5 63.562 63.562 63.562h997.87c35.062 0 63.562-28.5 63.562-63.562 0-35.016-28.5-63.562-63.562-63.562zm-193.13-534.56h127.74v530.72h-127.74zm-246.47 186.61h127.74l0.046875 344.06h-127.74zm-246.47-186.61h127.74v530.68h-127.74zm-246.42 186.61h127.69v344.06h-127.69zm932.48 438.74h-997.87c-15 0-27.234-12.188-27.234-27.234 0-15.047 12.188-27.234 27.234-27.234h997.87c15 0 27.234 12.188 27.234 27.234 0 15-12.234 27.234-27.234 27.234z"/>
 <path d="m264.37 486.94c-10.031-5.7656-21.656-9.0469-34.031-9.0469-38.062 0-69 30.938-69 69s30.938 69 69 69c38.016 0 68.953-30.938 68.953-69 0-12.469-3.375-24.188-9.1875-34.312l152.48-152.48c10.078 5.7656 21.75 9.0938 34.172 9.0938s24.094-3.2812 34.172-9.0938l152.44 152.53c-5.8125 10.078-9.1406 21.797-9.1406 34.266 0 38.062 30.938 69 69 69s69-30.938 69-69c0-12.469-3.3281-24.094-9.0938-34.219l152.81-152.9c10.078 5.8125 21.75 9.0938 34.219 9.0938 38.062 0 69-30.938 69-69s-30.938-69-69-69c-38.016 0-68.953 30.938-68.953 69 0 12.422 3.3281 24.094 9.0938 34.172l-152.86 152.9c-10.078-5.8125-21.75-9.0938-34.219-9.0938-12.422 0-24.094 3.3281-34.172 9.0938l-152.44-152.53c5.8125-10.078 9.1406-21.75 9.1406-34.219 0-38.062-30.938-69-69-69s-69 30.938-69 69c0 12.469 3.3281 24.094 9.0938 34.219zm-34.031 92.625c-18 0-32.719-14.672-32.719-32.719 0-18 14.672-32.719 32.719-32.719 18 0 32.625 14.672 32.625 32.719 0 18.094-14.625 32.719-32.625 32.719zm739.82-312.37c18 0 32.719 14.672 32.719 32.719 0 18-14.672 32.719-32.719 32.719-18 0-32.625-14.672-32.625-32.719s14.672-32.719 32.625-32.719zm-246.94 247.03c8.9531 0 17.062 3.6562 22.969 9.4688 0.046876 0.046875 0.09375 0.09375 0.09375 0.09375 0.046876 0.046875 0.09375 0.09375 0.09375 0.09375 5.8594 5.9062 9.4688 14.062 9.4688 22.969 0 18-14.672 32.719-32.719 32.719-18 0-32.719-14.672-32.719-32.719 0.14063-18 14.766-32.625 32.812-32.625zm-246.47-246.66c18 0 32.719 14.672 32.719 32.719 0 18-14.672 32.625-32.719 32.625-18 0-32.719-14.625-32.719-32.625 0.046876-18.094 14.672-32.719 32.719-32.719z"/>
 <path d="m218.34 399.32c99.75 0 180.94-81.188 180.94-180.94s-81.188-180.84-180.94-180.84c-99.703-0.046875-180.84 81.094-180.84 180.79 0 99.797 81.141 180.98 180.84 180.98zm0-325.5c79.734 0 144.61 64.875 144.61 144.56 0 79.734-64.875 144.61-144.61 144.61-79.688 0-144.56-64.875-144.56-144.61 0.046875-79.734 64.875-144.56 144.56-144.56z"/>
 <path d="m218.34 236.53c9.4688 0 17.203 7.6875 17.203 17.203 0 9.4688-7.6875 17.156-17.203 17.156-6.8438 0-13.031-4.0781-15.703-10.406-3.9375-9.1875-14.625-13.5-23.812-9.5625s-13.5 14.625-9.5625 23.812c5.9531 13.875 17.25 24.281 30.938 29.203v10.688c0 10.031 8.1562 18.188 18.188 18.188s18.188-8.1562 18.188-18.188v-10.688c20.578-7.4531 35.344-27.188 35.344-50.25 0-29.531-24-53.531-53.531-53.531-9.4688 0-17.156-7.6875-17.156-17.156s7.6875-17.156 17.156-17.156c6.8438 0 13.031 4.0781 15.75 10.406 3.9375 9.1875 14.625 13.5 23.812 9.5625s13.5-14.625 9.5625-23.812c-5.9531-13.875-17.344-24.281-31.031-29.25v-10.688c0-10.031-8.1562-18.188-18.188-18.188s-18.188 8.1562-18.188 18.188v10.688c-20.531 7.4531-35.297 27.188-35.297 50.25 0.09375 29.531 24.094 53.531 53.531 53.531z"/>
</svg>
